# AST/ASF file generated using VICON BodyLanguage
# -----------------------------------------------
:version 1.10
:name VICON
:units
  mass 1.0
  length 0.45
  angle deg
:documentation
   .ast/.asf automatically generated from VICON data using
   VICON BodyBuilder and BodyLanguage model FoxedUp or BRILLIANT.MOD
:root
   order TX TY TZ RX RY RZ
   axis XYZ
   position 0 0 0  
   orientation 0 0 0 
:bonedata
  begin
     id 1 
     name lhipjoint
     direction 0.621036 -0.695554 0.361275 
     length 2.46325 
     axis 0 0 0  XYZ
  end
  begin
     id 2 
     name lfemur
     direction 0.34202 -0.939693 0  
     length 6.54784  
     axis 0 0 20  XYZ
    dof rx ry rz
    limits (-160.0 20.0)
           (-70.0 70.0)
           (-60.0 70.0)
  end
  begin
     id 3 
     name ltibia
     direction 0.34202 -0.939693 0   
     length 7.84737   
     axis 0 0 20   XYZ
    dof rx
    limits (-10.0 170.0)
  end
  begin
     id 4 
     name lfoot
     direction 0.0790693 -0.217241 0.97291   
     length 2.59747   
     axis -90 7.62852e-016 20   XYZ
    dof rx rz
    limits (-45.0 90.0)
           (-70.0 20.0)
  end
  begin
     id 5 
     name ltoes
     direction 1.53572e-011 -4.21898e-011 1   
     length 1.29919   
     axis -90 7.62852e-016 20   XYZ
    dof rx
    limits (-90.0 20.0)
  end
  begin
     id 6 
     name rhipjoint
     direction -0.602353 -0.708375 0.367935   
     length 2.41867  
     axis 0 0 0  XYZ 
  end
  begin
     id 7 
     name rfemur
     direction -0.34202 -0.939693 0   
     length 6.92065   
     axis 0 0 -20   XYZ
    dof rx ry rz
    limits (-160.0 20.0)
           (-70.0 70.0)
           (-70.0 60.0)
  end
  begin
     id 8 
     name rtibia
     direction -0.34202 -0.939693 0   
     length 7.88883   
     axis 0 0 -20   XYZ
    dof rx
    limits (-10.0 170.0)
 end
 begin
     id 9 
     name rfoot
     direction -0.0768692 -0.211196 0.974416   
     length 2.43714  
     axis -90 -7.62852e-016 -20   XYZ
    dof rx rz
    limits (-45.0 90.0)
           (-20.0 70.0)
  end
  begin
     id 10 
     name rtoes
     direction -1.53575e-011 -4.21933e-011 1   
     length 1.22113   
     axis -90 -7.62852e-016 -20   XYZ
    dof rx
    limits (-90.0 20.0)
  end
  begin
     id 11 
     name lowerback
     direction 0.0197937 0.98943 -0.143655   
     length 2.16931   
     axis 0 0 0   XYZ
    dof rx ry rz
    limits (-20.0 45.0)
           (-30.0 30.0)
           (-30.0 30.0)
  end
  begin
     id 12 
     name upperback
     direction -0.00183968 0.999975 0.00684288   
     length 2.17221   
     axis 0 0 0   XYZ
    dof rx ry rz
    limits (-20.0 45.0)
           (-30.0 30.0)
           (-30.0 30.0)
  end
  begin
     id 13 
     name thorax
     direction -0.00950244 0.997208 0.0740685   
     length 2.22549   
     axis 0 0 0   XYZ
    dof rx ry rz
    limits (-20.0 45.0)
           (-30.0 30.0)
           (-30.0 30.0)
  end
  begin
     id 14 
     name lowerneck
     direction 0.0218238 0.996215 0.0841425   
     length 1.77269   
     axis 0 0 0   XYZ
    dof rx ry rz
    limits (-20.0 45.0)
           (-30.0 30.0)
           (-30.0 30.0)
  end
  begin
     id 15 
     name upperneck
     direction -0.00430652 0.994214 -0.107332   
     length 1.76534   
     axis 0 0 0   XYZ
    dof rx ry rz
    limits (-20.0 45.0)
           (-30.0 30.0)
           (-30.0 30.0)
  end
  begin
     id 16
     name head
     direction -0.00328946 0.998959 -0.0454998  
     length 1.82634  
     axis 0 0 0   XYZ
    dof rx ry rz
    limits (-20.0 45.0)
           (-30.0 30.0)
           (-30.0 30.0)
  end
  begin
     id 17 
     name lclavicle
     direction 0.970962 0.239191 0.00450212  
     length 3.84872  
     axis 0 0 0   XYZ
    dof ry rz
    limits (-20.0 10.0)
           (0.0 20.0)
  end
  begin
     id 18 
     name lhumerus
     direction 1 -4.48966e-011 5.74696e-028   
     length 5.22771   
     axis 180 -30 -90   XYZ
    dof rx ry rz
    limits (-60.0 90.0)
           (-90.0 90.0)
           (-90.0 90.0)
  end
  begin
     id 19
     name lradius
     direction 1 -4.4896e-011 4.25109e-027   
     length 3.45251   
     axis 180 -30 -90   XYZ
    dof rx
    limits (-10.0 170.0)
  end
  begin
     id 20
     name lwrist
     direction 1 -4.48971e-011 1.15382e-027   
     length 1.72626   
     axis -5.52449e-016 90 90   XYZ
    dof ry
    limits (-180.0 0.0)
 end
  begin
     id 21 
     name lhand
     direction 1 -4.49034e-011 2.30765e-027   
     length 0.552119   
     axis -1.47248e-015 90 90   XYZ
    dof rx rz
    limits (-90.0 90.0)
           (-45.0 45.0)
  end
  begin
     id 22 
     name lfingers
     direction 1 -4.48951e-011 4.61529e-027   
     length 0.445133   
     axis -2.94495e-015 90 90   XYZ
    dof rx
    limits (0.0 90.0)
  end
  begin
     id 23
     name lthumb
     direction 0.707107 -6.34991e-011 0.707107   
     length 0.639124   
     axis -90 45 2.85299e-015   XYZ
    dof rx rz
    limits (-45.0 45.0)
           (-45.0 45.0)
  end
  begin
     id 24 
     name rclavicle
     direction -0.97424 0.222511 -0.0366699   
     length 3.73439  
     axis 0 0 0   XYZ 
    dof ry rz
    limits (-10.0 20.0)
           (-20.0 0.0)
  end
  begin
     id 25 
     name rhumerus
     direction -1 -4.48956e-011 -4.97258e-028  
     length 5.2398   
     axis 180 30 90   XYZ
    dof rx ry rz
    limits (-90.0 60.0)
           (-90.0 90.0)
           (-90.0 90.0)
  end
  begin
     id 26 
     name rradius
     direction -1 -4.4897e-011 -1.72611e-027   
     length 3.48042   
     axis 180 30 90   XYZ
    dof rx
    limits (-10.0 170.0)
  end
  begin
     id 27 
     name rwrist
     direction -1 -4.48976e-011 1.15382e-027   
     length 1.74021   
     axis -5.52449e-016 -90 -90   XYZ
    dof ry
    limits (-180.0 0.0)
  end
  begin
     id 28
     name rhand
     direction -1 -4.48963e-011 2.30765e-027   
     length 0.618713   
     axis -1.47248e-015 -90 -90   XYZ
    dof rx rz
    limits (-90.0 90.0)
           (-45.0 45.0)
  end
  begin
     id 29
     name rfingers
     direction -1 -4.4888e-011 4.61529e-027   
     length 0.498823   
     axis -2.94495e-015 -90 -90   XYZ
    dof rx
    limits (0.0 90.0)
  end
  begin
     id 30
     name rthumb
     direction -0.707107 -6.34968e-011 0.707107   
     length 0.716213   
     axis -90 -45 -2.85299e-015   XYZ
    dof rx rz
    limits (-45.0 45.0)
           (-45.0 45.0)
  end
:hierarchy
  begin
    root lhipjoint rhipjoint lowerback
    lhipjoint lfemur
    lfemur ltibia
    ltibia lfoot
    lfoot ltoes
    rhipjoint rfemur
    rfemur rtibia
    rtibia rfoot
    rfoot rtoes
    lowerback upperback
    upperback thorax
    thorax lowerneck lclavicle rclavicle
    lowerneck upperneck
    upperneck head
    lclavicle lhumerus
    lhumerus lradius
    lradius lwrist
    lwrist lhand lthumb
    lhand lfingers
    rclavicle rhumerus
    rhumerus rradius
    rradius rwrist
    rwrist rhand rthumb
    rhand rfingers
  end

#!OML:ASF G:\JayActor3\Patient Classification 1\Patient 1\Session 5\male.ASF
:FULLY-SPECIFIED
:DEGREES
377
root 34.3026 14.2614 -4.13056 -111.5 -88.5706 125.061
lowerback 33.4367 -0.288485 -0.0575278
upperback 6.6007 -1.28262 -1.40887
thorax -9.83971 -0.887197 -0.927818
lowerneck -5.04273 0.874305 2.91197
upperneck -17.0034 0.618301 0.424704
head -4.75649 -0.174509 -0.356507
rclavicle 2.10712e-014 2.5842e-014
rhumerus -20.1642 0.684442 -86.6459
rradius 43.8622
rwrist -7.70372
rhand -17.8777 -6.92644
rfingers 7.12502
rthumb 8.38833 -36.7399
lclavicle 2.10712e-014 2.5842e-014
lhumerus -22.4489 -1.41221 80.8306
lradius 45.1109
lwrist 28.3461
lhand -17.5022 13.7208
lfingers 7.12502
lthumb 8.75078 43.5194
rfemur -54.6903 -2.78813 14.8263
rtibia 103.345
rfoot 7.39138 -0.741332
rtoes -3.913
lfemur -62.8337 -3.26496 -21.5599
ltibia 68.4772
lfoot -18.6724 4.86662
ltoes -0.24617
378
root 34.1836 14.2651 -4.10992 -114.598 -88.4967 128.067
lowerback 33.5111 -0.264542 -0.0973309
upperback 6.64102 -1.27345 -1.41019
thorax -9.82291 -0.884822 -0.91055
lowerneck -5.04211 0.896447 2.96592
upperneck -17.0193 0.636755 0.344381
head -4.76211 -0.16583 -0.393763
rclavicle 1.96797e-014 2.96189e-014
rhumerus -20.067 0.762024 -86.6615
rradius 43.98
rwrist -7.6758
rhand -17.7908 -6.90949
rfingers 7.12502
rthumb 8.47226 -36.7195
lclavicle 1.96797e-014 2.96189e-014
lhumerus -22.4544 -1.38594 80.7612
lradius 45.1735
lwrist 28.4916
lhand -17.6219 13.7269
lfingers 7.12502
lthumb 8.63522 43.5303
rfemur -55.8949 -3.37541 14.9277
rtibia 104.027
rfoot 5.66453 -1.17533
rtoes -4.609
lfemur -62.3417 -3.49838 -21.6153
ltibia 68.7857
lfoot -19.2615 5.27019
ltoes -0.574191
379
root 34.0655 14.2663 -4.09089 -117.382 -88.431 130.765
lowerback 33.5731 -0.244886 -0.128331
upperback 6.67943 -1.26576 -1.40874
thorax -9.80354 -0.883135 -0.894657
lowerneck -5.03986 0.919191 3.01775
upperneck -17.0294 0.656878 0.267513
head -4.76583 -0.156086 -0.429545
rclavicle 3.33958e-014 5.22804e-014
rhumerus -19.9693 0.831984 -86.683
rradius 44.0926
rwrist -7.63303
rhand -17.7342 -6.89949
rfingers 7.12502
rthumb 8.52683 -36.7073
lclavicle 3.33958e-014 5.22804e-014
lhumerus -22.4472 -1.35773 80.6889
lradius 45.2072
lwrist 28.6055
lhand -17.7304 13.724
lfingers 7.12502
lthumb 8.5305 43.5317
rfemur -57.1493 -3.93174 15.0965
rtibia 104.592
rfoot 3.83662 -1.7251
rtoes -4.99047
lfemur -61.8743 -3.72354 -21.6654
ltibia 69.1116
lfoot -19.8439 5.67036
ltoes -0.925746
380
root 33.9481 14.2655 -4.07321 -119.956 -88.374 133.261
lowerback 33.6238 -0.231334 -0.146813
upperback 6.71303 -1.2604 -1.40551
thorax -9.78526 -0.882494 -0.882829
lowerneck -5.03211 0.942874 3.06375
upperneck -17.0358 0.679844 0.197759
head -4.76919 -0.144659 -0.461999
rclavicle 2.00773e-014 2.00773e-014
rhumerus -19.8737 0.893736 -86.7109
rradius 44.2013
rwrist -7.57964
rhand -17.6933 -6.89947
rfingers 7.12502
rthumb 8.56632 -36.7057
lclavicle 2.00773e-014 2.00773e-014
lhumerus -22.4328 -1.32816 80.616
lradius 45.2165
lwrist 28.6821
lhand -17.8214 13.7219
lfingers 7.12502
lthumb 8.44271 43.5331
rfemur -58.449 -4.43391 15.3202
rtibia 105.022
rfoot 1.99695 -2.3243
rtoes -5.28591
lfemur -61.4298 -3.9449 -21.7084
ltibia 69.4514
lfoot -20.4233 6.06813
ltoes -1.27374
381
root 33.8309 14.2637 -4.05669 -122.505 -88.3221 135.738
lowerback 33.6646 -0.22313 -0.15479
upperback 6.74248 -1.25747 -1.40228
thorax -9.768 -0.882951 -0.875797
lowerneck -5.01539 0.967913 3.10842
upperneck -17.0417 0.705971 0.13275
head -4.77401 -0.131654 -0.492747
rclavicle 4.37326e-015 8.74653e-015
rhumerus -19.7835 0.949698 -86.7474
rradius 44.3084
rwrist -7.52813
rhand -17.6598 -6.90917
rfingers 7.12502
rthumb 8.59864 -36.7141
lclavicle 4.37326e-015 8.74653e-015
lhumerus -22.4165 -1.29692 80.5413
lradius 45.2089
lwrist 28.7244
lhand -17.8916 13.7192
lfingers 7.12502
lthumb 8.37493 43.5332
rfemur -59.7752 -4.85615 15.5887
rtibia 105.3
rfoot 0.148817 -2.86935
rtoes -5.60753
lfemur -60.9949 -4.16177 -21.7444
ltibia 69.7976
lfoot -21.0031 6.47047
ltoes -1.62047
382
root 33.7137 14.2611 -4.04094 -124.926 -88.2707 138.091
lowerback 33.6969 -0.220395 -0.150961
upperback 6.76804 -1.25712 -1.40222
thorax -9.75213 -0.884607 -0.877541
lowerneck -4.99518 0.992196 3.14878
upperneck -17.0442 0.732552 0.0756938
head -4.77818 -0.118326 -0.520072
rclavicle 1.11319e-014 5.56597e-015
rhumerus -19.7014 0.996959 -86.792
rradius 44.4167
rwrist -7.48804
rhand -17.6374 -6.91016
rfingers 7.12502
rthumb 8.62027 -36.7142
lclavicle 1.11319e-014 5.56597e-015
lhumerus -22.3977 -1.27146 80.4677
lradius 45.1863
lwrist 28.7346
lhand -17.9407 13.7277
lfingers 7.12502
lthumb 8.32753 43.5435
rfemur -61.1125 -5.19363 15.8855
rtibia 105.422
rfoot -1.68494 -3.35456
rtoes -6.01052
lfemur -60.5633 -4.37621 -21.7823
ltibia 70.145
lfoot -21.5863 6.87862
ltoes -1.94486
383
root 33.5966 14.2576 -4.02598 -127.237 -88.2113 140.336
lowerback 33.7238 -0.218821 -0.143611
upperback 6.79085 -1.25719 -1.40653
thorax -9.73738 -0.886386 -0.885703
lowerneck -4.98012 1.01631 3.18757
upperneck -17.0384 0.759315 0.0215718
head -4.77822 -0.10467 -0.546104
rclavicle 6.36111e-015 -4.37326e-015
rhumerus -19.624 1.03381 -86.8429
rradius 44.5223
rwrist -7.46681
rhand -17.619 -6.90839
rfingers 7.12502
rthumb 8.63799 -36.7117
lclavicle 6.36111e-015 -4.37326e-015
lhumerus -22.3753 -1.25447 80.3983
lradius 45.1525
lwrist 28.7257
lhand -17.9802 13.7449
lfingers 7.12502
lthumb 8.28945 43.5623
rfemur -62.4518 -5.43879 16.1962
rtibia 105.387
rfoot -3.48683 -3.77075
rtoes -6.60826
lfemur -60.1299 -4.58078 -21.8306
ltibia 70.4908
lfoot -22.1715 7.29259
ltoes -2.25342
384
root 33.4798 14.2536 -4.01188 -129.233 -88.1437 142.269
lowerback 33.7479 -0.21831 -0.13691
upperback 6.81064 -1.25898 -1.41504
thorax -9.72509 -0.888801 -0.897327
lowerneck -4.96903 1.03853 3.22436
upperneck -17.0257 0.784061 -0.0283052
head -4.7749 -0.0918573 -0.570261
rclavicle -8.94531e-015 -1.47101e-014
rhumerus -19.5528 1.06516 -86.8981
rradius 44.627
rwrist -7.47149
rhand -17.6093 -6.90102
rfingers 7.12502
rthumb 8.64734 -36.7039
lclavicle -8.94531e-015 -1.47101e-014
lhumerus -22.3508 -1.24836 80.3344
lradius 45.1093
lwrist 28.7074
lhand -18.0036 13.7681
lfingers 7.12502
lthumb 8.2669 43.5864
rfemur -63.7797 -5.59056 16.5083
rtibia 105.189
rfoot -5.23972 -4.11322
rtoes -7.39239
lfemur -59.6895 -4.77481 -21.8961
ltibia 70.8329
lfoot -22.7584 7.70846
ltoes -2.54301
385
root 33.3631 14.2486 -3.99899 -131 -88.0674 143.971
lowerback 33.7712 -0.215159 -0.138616
upperback 6.82847 -1.26028 -1.42431
thorax -9.71452 -0.890756 -0.905459
lowerneck -4.9625 1.05838 3.25842
upperneck -17.0058 0.805791 -0.0763909
head -4.76803 -0.0802275 -0.593211
rclavicle -1.0138e-014 -2.50469e-014
rhumerus -19.49 1.09877 -86.9546
rradius 44.7316
rwrist -7.50588
rhand -17.6088 -6.90295
rfingers 7.12502
rthumb 8.64783 -36.7058
lclavicle -1.0138e-014 -2.50469e-014
lhumerus -22.3271 -1.25035 80.2782
lradius 45.0616
lwrist 28.6901
lhand -18.0147 13.7936
lfingers 7.12502
lthumb 8.25613 43.6122
rfemur -65.0867 -5.65514 16.8175
rtibia 104.828
rfoot -6.91218 -4.38188
rtoes -8.37207
lfemur -59.2425 -4.94755 -21.9798
ltibia 71.1719
lfoot -23.3437 8.12328
ltoes -2.83603
386
root 33.2467 14.2425 -3.98747 -132.427 -87.9794 145.327
lowerback 33.7991 -0.206886 -0.15741
upperback 6.84461 -1.26104 -1.43314
thorax -9.70726 -0.892123 -0.904135
lowerneck -4.95724 1.07537 3.28345
upperneck -16.9807 0.824638 -0.118207
head -4.75899 -0.0695568 -0.61234
rclavicle 1.41137e-014 1.94809e-014
rhumerus -19.4378 1.14033 -87.0086
rradius 44.8384
rwrist -7.57179
rhand -17.6094 -6.914
rfingers 7.12502
rthumb 8.64728 -36.7169
lclavicle 1.41137e-014 1.94809e-014
lhumerus -22.3048 -1.25642 80.2342
lradius 45.0097
lwrist 28.6825
lhand -18.0288 13.8044
lfingers 7.12502
lthumb 8.24252 43.6236
rfemur -66.3624 -5.648 17.1117
rtibia 104.304
rfoot -8.4779 -4.55362
rtoes -9.35004
lfemur -58.7846 -5.09776 -22.0875
ltibia 71.5067
lfoot -23.9234 8.54648
ltoes -3.17062
387
root 33.1304 14.2361 -3.97707 -133.503 -87.889 146.322
lowerback 33.8357 -0.198357 -0.186255
upperback 6.86019 -1.26492 -1.43972
thorax -9.70377 -0.894782 -0.893771
lowerneck -4.94607 1.09152 3.3001
upperneck -16.9564 0.843553 -0.154342
head -4.75144 -0.0585464 -0.628097
rclavicle 2.18663e-015 1.82882e-014
rhumerus -19.3974 1.19532 -87.0584
rradius 44.9484
rwrist -7.6647
rhand -17.6127 -6.93197
rfingers 7.12502
rthumb 8.64413 -36.735
lclavicle 2.18663e-015 1.82882e-014
lhumerus -22.2858 -1.25973 80.2015
lradius 44.9562
lwrist 28.6831
lhand -18.0356 13.814
lfingers 7.12502
lthumb 8.23595 43.6334
rfemur -67.5836 -5.5788 17.3861
rtibia 103.608
rfoot -9.88804 -4.64039
rtoes -10.0826
lfemur -58.307 -5.22855 -22.2155
ltibia 71.8314
lfoot -24.4908 8.96189
ltoes -3.53865
388
root 33.0142 14.2299 -3.96774 -134.18 -87.8021 146.907
lowerback 33.8816 -0.192447 -0.220293
upperback 6.87549 -1.27389 -1.44441
thorax -9.70404 -0.899717 -0.876594
lowerneck -4.93383 1.10603 3.30629
upperneck -16.9288 0.861799 -0.180692
head -4.74286 -0.0475174 -0.638658
rclavicle 1.66979e-014 1.37161e-014
rhumerus -19.3657 1.26197 -87.1034
rradius 45.0566
rwrist -7.77739
rhand -17.6161 -6.9513
rfingers 7.12502
rthumb 8.64087 -36.7545
lclavicle 1.66979e-014 1.37161e-014
lhumerus -22.2693 -1.26031 80.181
lradius 44.9022
lwrist 28.6989
lhand -18.0509 13.8162
lfingers 7.12502
lthumb 8.22122 43.6362
rfemur -68.7401 -5.47332 17.638
rtibia 102.739
rfoot -11.1253 -4.64958
rtoes -10.5913
lfemur -57.8116 -5.34523 -22.3601
ltibia 72.1421
lfoot -25.0373 9.36128
ltoes -3.94008
389
root 32.8983 14.2243 -3.9594 -134.662 -87.7274 147.289
lowerback 33.936 -0.19153 -0.248195
upperback 6.89076 -1.28682 -1.44578
thorax -9.70765 -0.906626 -0.857583
lowerneck -4.91872 1.11871 3.312
upperneck -16.9033 0.877861 -0.205391
head -4.73567 -0.0376712 -0.648533
rclavicle 4.57205e-015 1.68967e-014
rhumerus -19.3422 1.3409 -87.1427
rradius 45.1611
rwrist -7.90218
rhand -17.6202 -6.95876
rfingers 7.12502
rthumb 8.63685 -36.7621
lclavicle 4.57205e-015 1.68967e-014
lhumerus -22.2515 -1.25524 80.1739
lradius 44.8464
lwrist 28.7163
lhand -18.0752 13.8137
lfingers 7.12502
lthumb 8.19774 43.6346
rfemur -69.8224 -5.3382 17.8746
rtibia 101.694
rfoot -12.1799 -4.61474
rtoes -10.9404
lfemur -57.3033 -5.4496 -22.506
ltibia 72.4382
lfoot -25.5551 9.72947
ltoes -4.36865
390
root 32.7823 14.2202 -3.95179 -134.934 -87.6726 147.454
lowerback 33.9948 -0.200185 -0.260078
upperback 6.90847 -1.30603 -1.44391
thorax -9.71049 -0.916797 -0.841255
lowerneck -4.90256 1.12932 3.31491
upperneck -16.8795 0.891629 -0.225968
head -4.72942 -0.0290429 -0.656462
rclavicle 1.98785e-016 9.74045e-015
rhumerus -19.3272 1.42685 -87.1758
rradius 45.2649
rwrist -8.02802
rhand -17.6271 -6.96471
rfingers 7.12502
rthumb 8.63023 -36.7683
lclavicle 1.98785e-016 9.74045e-015
lhumerus -22.2266 -1.24649 80.1792
lradius 44.7856
lwrist 28.7328
lhand -18.1055 13.8116
lfingers 7.12502
lthumb 8.16847 43.6337
rfemur -70.8103 -5.19039 18.0963
rtibia 100.471
rfoot -13.0699 -4.56637
rtoes -11.1621
lfemur -56.7771 -5.54903 -22.6466
ltibia 72.7161
lfoot -26.0416 10.0551
ltoes -4.81078
